Coordinates
version=1
nRows=49
nColumns=12
inDegrees=yes

Units are S.I. units (second, meters, Newtons, ...)
Angles are in degrees

endheader
time	SC_y	SC_z	SC_x	AC_y	AC_z	AC_x	GH_y	GH_z	GH_yy	EL_x	PS_y
       0.0              -53.01          39.48          58.72           58.3          5.498          15.62          31.67          80.54          51.79          59.45          49.39
  0.007695               -53.0          39.48          58.71           58.3          5.495          15.62          31.68          80.52           51.8          59.46           49.4
   0.01539               -53.0          39.47           58.7           58.3          5.491          15.62           31.7          80.51           51.8          59.46          49.41
   0.02308               -53.0          39.47           58.7           58.3          5.488          15.62          31.72           80.5          51.81          59.47          49.41
   0.03078               -53.0          39.46          58.69          58.29          5.484          15.61          31.74          80.49          51.82          59.47          49.42
   0.03847              -52.99          39.45          58.69          58.29          5.479          15.61          31.76          80.47          51.83          59.48          49.43
   0.04617              -52.99          39.45          58.68          58.29          5.475          15.61          31.78          80.46          51.84          59.48          49.44
   0.05386              -52.99          39.44          58.67          58.28           5.47          15.61           31.8          80.44          51.85          59.49          49.45
   0.06156              -52.98          39.43          58.66          58.28          5.465          15.61          31.83          80.43          51.87           59.5          49.46
   0.06925              -52.98          39.42          58.65          58.28          5.459           15.6          31.85          80.41          51.88           59.5          49.47
   0.07695              -52.97          39.41          58.64          58.27          5.453           15.6          31.88          80.39          51.89          59.51          49.48
   0.08464              -52.97           39.4          58.63          58.27          5.447           15.6          31.91          80.37          51.91          59.52          49.49
   0.09234              -52.96          39.39          58.62          58.26           5.44          15.59          31.95          80.34          51.92          59.53          49.51
       0.1              -52.96          39.38          58.61          58.26          5.433          15.59          31.98          80.32          51.94          59.54          49.52
    0.1077              -52.95          39.37           58.6          58.25          5.424          15.59          32.02          80.29          51.96          59.55          49.54
    0.1154              -52.94          39.35          58.58          58.25          5.416          15.58          32.06          80.26          51.98          59.56          49.55
    0.1231              -52.94          39.34          58.57          58.24          5.406          15.58          32.11          80.23           52.0          59.58          49.57
    0.1308              -52.93          39.32          58.55          58.23          5.396          15.57          32.16           80.2          52.03          59.59          49.59
    0.1385              -52.92           39.3          58.53          58.23          5.385          15.57          32.22          80.16          52.05           59.6          49.61
    0.1462              -52.91          39.29          58.51          58.22          5.372          15.56          32.27          80.12          52.08          59.62          49.64
    0.1539               -52.9          39.26          58.49          58.21          5.359          15.56          32.34          80.08          52.11          59.64          49.67
    0.1616              -52.89          39.24          58.47           58.2          5.344          15.55          32.41          80.03          52.15          59.66           49.7
    0.1693              -52.88          39.21          58.44          58.19          5.327          15.54          32.49          79.97          52.19          59.68          49.73
     0.177              -52.86          39.19          58.41          58.18          5.309          15.53          32.58          79.91          52.23          59.71          49.76
    0.1847              -52.85          39.15          58.38          58.16          5.288          15.52          32.68          79.84          52.28          59.73           49.8
    0.1924              -52.83          39.12          58.34          58.15          5.266          15.51          32.79          79.77          52.33          59.76          49.85
    0.2001              -52.81          39.08           58.3          58.13           5.24           15.5          32.91          79.69          52.39           59.8           49.9
    0.2078              -52.79          39.03          58.26          58.11          5.212          15.49          33.05          79.59          52.46          59.84          49.95
    0.2155              -52.76          38.98           58.2          58.09          5.179          15.47          33.21          79.48          52.53          59.88          50.02
    0.2231              -52.73          38.92          58.15          58.06          5.142          15.45          33.38          79.36          52.62          59.93          50.09
    0.2308               -52.7          38.86          58.08          58.04            5.1          15.43          33.59          79.22          52.72          59.98          50.17
    0.2385              -52.66          38.78           58.0           58.0          5.052          15.41          33.82          79.07          52.83          60.05          50.27
    0.2462              -52.62           38.7          57.91          57.97          4.997          15.38          34.09          78.88          52.96          60.12          50.38
    0.2539              -52.57          38.59          57.81          57.92          4.932          15.35           34.4          78.67          53.11          60.21           50.5
    0.2616              -52.51          38.48          57.69          57.87          4.857          15.32          34.76          78.42          53.28          60.31          50.65
    0.2693              -52.45          38.34          57.54          57.81          4.768          15.28          35.19          78.13          53.49          60.43          50.83
     0.277              -52.36          38.17          57.37          57.74          4.662          15.23           35.7          77.78          53.74          60.57          51.03
    0.2847              -52.27          37.97          57.17          57.65          4.535          15.17          36.32          77.36          54.04          60.74          51.28
    0.2924              -52.15          37.73          56.92          57.55          4.381          15.09          37.06          76.85          54.39          60.95          51.59
    0.3001               -52.0          37.44          56.62          57.43          4.194          15.01          37.96          76.23          54.83           61.2          51.95
    0.3078              -51.83          37.07          56.25          57.27          3.963           14.9          39.08          75.47          55.37          61.51          52.41
    0.3155              -51.61          36.62          55.79          57.08          3.674          14.76          40.47          74.52          56.04           61.9          52.98
    0.3232              -51.33          36.05           55.2          56.83           3.31          14.59          42.23          73.32          56.89          62.38          53.69
    0.3309              -50.97          35.32          54.46          56.52          2.848          14.37          44.46           71.8          57.97           63.0           54.6
    0.3386              -50.52          34.39          53.51          56.12          2.257          14.09          47.31          69.85          59.35          63.79          55.76
    0.3463              -49.93           33.2          52.29          55.61          1.498          13.73          50.97          67.34          61.12          64.81          57.25
     0.354              -49.19          31.68          50.74          54.96         0.5283          13.27          55.65          64.14          63.38          66.11          59.16
    0.3617              -48.25          29.77          48.78          54.14        -0.6908           12.7          61.54          60.12          66.23          67.74          61.55
    0.3693              -47.11          27.43           46.4          53.14         -2.176          11.99          68.71          55.22          69.69          69.73          64.47
